<?xml version="1.0" encoding="UTF-8" standalone="no"?>
<!-- Created with Inkscape (http://www.inkscape.org/) -->

<svg
   xmlns:dc="http://purl.org/dc/elements/1.1/"
   xmlns:cc="http://creativecommons.org/ns#"
   xmlns:rdf="http://www.w3.org/1999/02/22-rdf-syntax-ns#"
   xmlns:svg="http://www.w3.org/2000/svg"
   xmlns="http://www.w3.org/2000/svg"
   xmlns:sodipodi="http://sodipodi.sourceforge.net/DTD/sodipodi-0.dtd"
   xmlns:inkscape="http://www.inkscape.org/namespaces/inkscape"
   width="210mm"
   height="297mm"
   viewBox="0 0 744.09448819 1052.3622047"
   id="svg7652"
   version="1.1"
   inkscape:version="0.91 r13725"
   inkscape:export-filename="/Users/macuser/Endless Runner Project/Assets/blender/path8202.png"
   inkscape:export-xdpi="90"
   inkscape:export-ydpi="90"
   sodipodi:docname="drawing-3.svg">
  <defs
     id="defs7654" />
  <sodipodi:namedview
     id="base"
     pagecolor="#ffffff"
     bordercolor="#666666"
     borderopacity="1.0"
     inkscape:pageopacity="0.0"
     inkscape:pageshadow="2"
     inkscape:zoom="0.57825247"
     inkscape:cx="513.85381"
     inkscape:cy="566.87786"
     inkscape:document-units="px"
     inkscape:current-layer="layer1"
     showgrid="false"
     inkscape:window-width="1680"
     inkscape:window-height="939"
     inkscape:window-x="0"
     inkscape:window-y="1"
     inkscape:window-maximized="1" />
  <metadata
     id="metadata7657">
    <rdf:RDF>
      <cc:Work
         rdf:about="">
        <dc:format>image/svg+xml</dc:format>
        <dc:type
           rdf:resource="http://purl.org/dc/dcmitype/StillImage" />
        <dc:title></dc:title>
      </cc:Work>
    </rdf:RDF>
  </metadata>
  <g
     inkscape:label="Layer 1"
     inkscape:groupmode="layer"
     id="layer1">
    <path
       style="fill:#f4d7d7;fill-opacity:0.82386361"
       d="M 96.56204,398.26875 C 85.191907,396.70552 72.941988,391.63781 63.920588,384.76519 l -2.810191,-2.14084 0,-14.65546 0,-14.65546 319.064783,0 319.06479,0 0,14.13144 0,14.13143 -9.72759,1.02548 c -47.9583,5.05576 -82.39748,5.48854 -106.20418,1.33462 -13.93005,-2.43059 -22.14607,-1.26124 -45.32997,6.45158 -14.92053,4.96376 -22.50313,6.35777 -35.01931,6.43804 -12.25197,0.0786 -16.23803,-0.51303 -42.80137,-6.35249 -44.52364,-9.78769 -58.2225,-11.60989 -82.57639,-10.98414 -18.02409,0.46311 -20.06613,0.78341 -47.55708,7.45936 -7.84692,1.90556 -17.96361,4.0684 -22.48153,4.80632 -11.56901,1.88959 -42.35234,4.84649 -56.20881,5.39916 -14.75417,0.58848 -19.23859,-0.47582 -33.27595,-7.89747 -12.97725,-6.86116 -17.66207,-8.27375 -27.43965,-8.27375 -11.47277,0 -20.35972,2.1456 -44.39714,10.71894 -16.46444,5.87231 -35.95942,8.45029 -49.65896,6.5668 z"
       id="path8216"
       inkscape:connector-curvature="0"
       inkscape:export-xdpi="88.099998"
       inkscape:export-ydpi="88.099998" />
    <path
       style="fill:#0000b4;fill-opacity:0.94318183"
       d="m 351.64093,519.33469 c -3.67101,-1.92696 -14.18058,-8.71529 -15.62056,-10.08964 -0.75076,-0.71653 -3.76893,-3.56769 -6.70702,-6.33591 -2.93809,-2.76821 -5.34199,-5.33215 -5.34199,-5.69765 0,-0.3655 -1.45914,-2.0929 -3.24253,-3.83866 -1.78339,-1.74576 -4.21529,-4.36902 -5.40421,-5.82946 -1.18893,-1.46044 -3.0813,-3.6938 -4.20525,-4.96302 -1.12397,-1.26922 -5.19057,-6.39326 -9.0369,-11.38676 -10.01408,-13.00076 -19.17902,-22.02228 -23.76963,-23.39766 -3.17162,-0.95024 -4.10141,-0.90772 -6.64193,0.30378 -1.62473,0.77477 -3.64505,2.4941 -4.48958,3.82071 -0.84455,1.32662 -1.76476,2.60658 -2.04491,2.84436 -0.28016,0.23779 -1.72295,2.2166 -3.20622,4.39735 -1.48325,2.18075 -4.90105,5.87724 -7.5951,8.2144 -2.69406,2.33718 -5.41532,4.73578 -6.04725,5.33024 -0.63194,0.59447 -1.56587,1.08085 -2.07541,1.08085 -0.50954,0 -0.92644,0.3891 -0.92644,0.86467 0,0.47557 -0.55123,0.86468 -1.22495,0.86468 -0.67372,0 -1.35465,0.29182 -1.51318,0.6485 -0.15852,0.35668 -1.34309,1.23216 -2.63238,1.94552 -1.28929,0.71335 -6.10452,3.53435 -10.7005,6.26889 -4.59599,2.73453 -8.66431,4.97187 -9.04072,4.97187 -0.37641,0 -0.81408,0.35346 -0.97261,0.78547 -0.15852,0.432 -1.04387,0.91838 -1.96744,1.08085 -1.32373,0.23284 -2.28201,-0.94231 -4.52654,-5.55093 -1.56601,-3.21546 -4.50684,-7.4956 -6.53518,-9.51141 -3.43776,-3.41656 -19.56736,-12.7442 -22.03759,-12.7442 -0.60799,0 -1.10545,-0.41207 -1.10545,-0.91571 0,-0.50363 -0.3891,-0.67522 -0.86467,-0.3813 -0.47557,0.29391 -0.86468,0.0994 -0.86468,-0.43234 0,-0.53171 -0.3891,-0.72626 -0.86467,-0.43234 -0.47557,0.29392 -0.86468,0.21148 -0.86468,-0.1832 0,-0.39467 -1.84133,-1.68222 -4.09185,-2.86122 -2.25051,-1.17899 -4.53746,-2.53273 -5.0821,-3.0083 -0.54463,-0.47557 -1.84683,-1.44833 -2.89378,-2.16168 -1.04694,-0.71336 -4.64208,-3.82619 -7.9892,-6.9174 -6.90644,-6.3784 -7.61445,-6.7727 -12.31152,-6.85662 -4.87415,-0.0871 -9.40887,2.43557 -17.78265,9.8924 -9.1448,8.14342 -8.14416,7.41018 -14.06448,10.306 -6.15322,3.00975 -7.79547,3.02956 -14.04292,0.16938 -4.656404,-2.13177 -9.256216,-6.20949 -14.261636,-12.64291 -1.188927,-1.52812 -2.648065,-3.29358 -3.242529,-3.92324 -0.594463,-0.62967 -1.080842,-1.34419 -1.080842,-1.58783 0,-0.39629 -2.872843,-4.51067 -17.449582,-24.99064 l -4.167274,-5.85492 0,-13.38408 c 0,-7.36124 0.191185,-13.38408 0.424855,-13.38408 0.233671,0 2.085281,1.26459 4.114691,2.81019 4.934638,3.75824 14.364054,8.00959 22.755574,10.25958 9.06175,2.42971 27.517793,2.64142 38.734443,0.44434 5.92526,-1.16063 25.57027,-7.05139 34.93023,-10.47421 0.59945,-0.21921 1.27312,-0.4346 1.49705,-0.47864 0.22391,-0.044 3.04083,-0.85628 6.2598,-1.80498 7.21798,-2.12729 8.36505,-2.32466 17.52579,-3.01559 9.67759,-0.7299 14.92878,0.66085 29.57511,7.83281 6.3233,3.09638 13.81601,6.22186 16.65046,6.94553 5.87019,1.49872 19.16194,1.7213 29.45611,0.49325 3.79209,-0.45238 10.20209,-1.07682 14.24444,-1.38765 4.04235,-0.31083 8.32249,-0.67875 9.51142,-0.81761 1.18892,-0.13885 4.69085,-0.51454 7.78206,-0.83488 9.00162,-0.93281 20.38114,-2.96848 31.86907,-5.70101 5.8765,-1.39779 11.71305,-2.7537 12.97011,-3.01314 4.77478,-0.98546 6.69866,-1.39255 12.61844,-2.67008 10.59081,-2.28558 12.62761,-2.44961 30.30682,-2.44078 15.31873,0.008 24.92398,0.55205 30.96024,1.75472 1.04355,0.20792 3.39564,0.57185 5.22685,0.80874 4.75129,0.61463 10.73424,1.732 13.38458,2.49969 0.79426,0.23006 2.80597,0.62847 4.47047,0.88536 1.66449,0.25689 3.99911,0.68113 5.18804,0.94276 2.53812,0.55853 9.8789,2.08158 12.97011,2.69101 1.18893,0.23439 7.22003,1.5339 13.40245,2.88779 18.25288,3.9972 23.6266,4.70558 35.01931,4.61633 12.5943,-0.0987 18.72446,-1.25252 37.76851,-7.10903 7.52378,-2.31374 16.01423,-4.68992 18.86765,-5.28038 6.19978,-1.28293 16.70317,-1.30625 25.20021,-0.0559 3.39757,0.49994 8.26136,1.20483 10.80843,1.56642 6.89854,0.97935 47.70686,0.65093 62.56422,-0.5035 23.03676,-1.78998 25.04227,-1.95803 27.23724,-2.2823 1.18893,-0.17564 4.80439,-0.56088 8.03435,-0.85608 l 5.87267,-0.53673 -0.11274,14.75083 c -0.062,8.11296 -0.46905,15.81905 -0.90452,17.12465 -1.0174,3.05032 -8.35073,30.39054 -8.88955,33.14217 -0.63757,3.25582 -7.56014,24.46747 -8.30106,25.43548 -0.364,0.47557 -1.10848,2.2531 -1.65438,3.95006 -0.54591,1.69697 -1.56589,3.83704 -2.26663,4.75571 -0.70074,0.91867 -2.91249,4.19949 -4.91501,7.2907 -4.97858,7.68528 -19.80108,21.61685 -22.99922,21.61685 -1.05098,0 -6.485,-5.35516 -13.15034,-12.95951 -3.09121,-3.52669 -6.78769,-7.65945 -8.21441,-9.18388 -1.42671,-1.52443 -3.38363,-3.68328 -4.34871,-4.79745 -21.02814,-24.27645 -34.26831,-37.39633 -41.25043,-40.87567 -2.76996,-1.38033 -5.90942,-2.2221 -8.28754,-2.2221 -3.65277,0 -4.11102,0.3018 -9.99016,6.57937 -7.63867,8.15637 -13.97758,16.61043 -19.30618,25.74825 -2.24991,3.85828 -4.59025,7.52923 -5.20075,8.15767 -0.6105,0.62842 -1.11001,1.66603 -1.11001,2.3058 0,0.63975 -0.30773,1.29288 -0.68384,1.45141 -0.69635,0.2935 -6.23355,8.26884 -6.23355,8.97831 0,0.21395 -0.68093,1.11118 -1.51318,1.99384 -0.83225,0.88267 -2.48594,2.85749 -3.67487,4.38849 -1.18892,1.531 -4.69085,5.46336 -7.78206,8.73858 l -5.62039,5.95494 -6.05272,-0.81344 c -10.37623,-1.3945 -11.73082,-1.59208 -14.11259,-2.05859 -1.27392,-0.24952 -3.67808,-0.6564 -5.34258,-0.90418 -1.66449,-0.24779 -3.80456,-0.64114 -4.7557,-0.87411 -0.95115,-0.23298 -3.48032,-0.86012 -5.62039,-1.39364 -2.14007,-0.53352 -4.28013,-1.05148 -4.7557,-1.151 -1.38478,-0.28982 -10.21235,-3.17179 -12.10544,-3.95212 -4.85883,-2.00279 -21.90867,-10.8168 -24.99608,-12.92186 -6.11101,-4.16662 -17.56929,-8.17513 -23.42568,-8.19514 -6.78977,-0.0232 -9.77479,1.58876 -23.48176,12.68052 -6.00866,4.86226 -12.94107,10.39687 -15.40535,12.29915 -4.55337,3.51494 -6.18332,4.8606 -9.16429,7.5659 -0.91705,0.83225 -1.88788,1.51318 -2.15739,1.51318 -0.26952,0 -1.76538,0.97276 -3.32415,2.16169 -3.26481,2.49019 -3.64262,2.5487 -6.56192,1.01635 z"
       id="path8218"
       inkscape:connector-curvature="0"
       inkscape:export-xdpi="88.099998"
       inkscape:export-ydpi="88.099998" />
    <path
       style="fill:#d5efe9;fill-opacity:0.94318183"
       d="m 97.859051,398.47907 c -6.162488,-0.64618 -19.416067,-5.09143 -25.878461,-8.67964 -10.326482,-5.73372 -10.879223,-5.22156 -10.878451,-17.07095 9.3e-5,-1.43092 0.0083,-3.0421 0.0083,-4.86631 l 0,-14.54874 319.064781,0 9.79285,0 309.27194,0 0,14.26713 0,14.26712 -2.8102,0.0662 c -1.5456,0.0364 -3.56512,0.20737 -4.48781,0.37996 -0.92269,0.17259 -4.81241,0.57275 -8.64382,0.88923 -3.83141,0.31649 -7.55117,0.68521 -8.26613,0.81937 -0.71496,0.13417 -5.58007,0.53689 -10.81135,0.89494 -5.23128,0.35805 -10.87328,0.76538 -12.53778,0.90518 -5.15212,0.43273 -49.47059,0.41309 -54.04213,-0.024 -2.37786,-0.22732 -7.24165,-0.83935 -10.80843,-1.36007 -17.47637,-2.55138 -24.07669,-1.92361 -42.7477,4.06586 -11.4758,3.68131 -15.90921,4.99557 -19.94118,5.91144 -4.4287,1.00598 -6.79853,1.47921 -8.93061,1.78333 -3.0587,0.4363 -23.33404,0.46423 -26.0887,0.0359 -1.18892,-0.18485 -4.1072,-0.61663 -6.48505,-0.95951 -2.37786,-0.34288 -4.55067,-0.75928 -4.82848,-0.92534 -0.27781,-0.16605 -1.63967,-0.50937 -3.02636,-0.76293 -4.30979,-0.78805 -6.49619,-1.2545 -7.99455,-1.70556 -0.79425,-0.2391 -2.41686,-0.61962 -3.60578,-0.84561 -1.18893,-0.22599 -3.91265,-0.78189 -6.05272,-1.23534 -56.55747,-11.98364 -81.51469,-13.46865 -110.6783,-6.5856 -9.29188,2.19303 -11.78059,2.75006 -15.56414,3.48365 -1.18893,0.23052 -3.32899,0.78155 -4.75571,1.2245 -1.42671,0.44295 -3.95588,1.03404 -5.62038,1.31352 -1.6645,0.27948 -4.58277,0.85439 -6.48506,1.27757 -7.55574,1.68086 -12.98883,2.39118 -32.85762,4.29577 -5.23127,0.50146 -12.04058,1.16956 -15.13179,1.48467 -3.09121,0.3151 -11.06783,0.59945 -17.72583,0.63188 -9.9018,0.0482 -12.97115,-0.24776 -16.86114,-1.62604 -2.61564,-0.92676 -5.04754,-1.60459 -5.40422,-1.50629 -0.35667,0.0983 -0.6485,-0.16501 -0.6485,-0.58511 0,-0.63584 -3.0852,-1.90003 -4.2267,-1.73193 -0.18461,0.0272 -0.57371,-0.32504 -0.86468,-0.78274 -0.29095,-0.45769 -4.57482,-2.68312 -9.51972,-4.9454 -8.00003,-3.66 -9.83349,-4.16129 -16.63902,-4.54933 -9.81704,-0.55974 -18.26729,0.83234 -31.82939,5.24353 -5.96757,1.94101 -11.04469,3.58736 -11.28247,3.65856 -0.23779,0.0712 -1.016,0.35748 -1.72935,0.63618 -1.86092,0.72704 -10.64778,3.54467 -11.6731,3.74314 -0.47558,0.0921 -3.78295,0.80552 -7.34974,1.58548 -9.31469,2.03686 -24.98563,3.21237 -32.425277,2.43228 z"
       id="path8220"
       inkscape:connector-curvature="0"
       inkscape:export-xdpi="88.099998"
       inkscape:export-ydpi="88.099998"
       sodipodi:nodetypes="csssccccccssscsscsssscscsssssssssssssssccssscscscc" />
  </g>
</svg>
