<?xml version="1.0" encoding="UTF-8" standalone="no"?>
<!-- Created with Inkscape (http://www.inkscape.org/) -->

<svg
   xmlns:dc="http://purl.org/dc/elements/1.1/"
   xmlns:cc="http://creativecommons.org/ns#"
   xmlns:rdf="http://www.w3.org/1999/02/22-rdf-syntax-ns#"
   xmlns:svg="http://www.w3.org/2000/svg"
   xmlns="http://www.w3.org/2000/svg"
   xmlns:sodipodi="http://sodipodi.sourceforge.net/DTD/sodipodi-0.dtd"
   xmlns:inkscape="http://www.inkscape.org/namespaces/inkscape"
   width="210mm"
   height="297mm"
   viewBox="0 0 744.09448819 1052.3622047"
   id="svg7071"
   version="1.1"
   inkscape:version="0.91 r13725"
   sodipodi:docname="blobk.svg">
  <defs
     id="defs7073" />
  <sodipodi:namedview
     id="base"
     pagecolor="#ffffff"
     bordercolor="#666666"
     borderopacity="1.0"
     inkscape:pageopacity="0.0"
     inkscape:pageshadow="2"
     inkscape:zoom="0.98994949"
     inkscape:cx="416.01495"
     inkscape:cy="566.78571"
     inkscape:document-units="px"
     inkscape:current-layer="layer1"
     showgrid="false"
     inkscape:window-width="1680"
     inkscape:window-height="939"
     inkscape:window-x="0"
     inkscape:window-y="1"
     inkscape:window-maximized="1" />
  <metadata
     id="metadata7076">
    <rdf:RDF>
      <cc:Work
         rdf:about="">
        <dc:format>image/svg+xml</dc:format>
        <dc:type
           rdf:resource="http://purl.org/dc/dcmitype/StillImage" />
        <dc:title></dc:title>
      </cc:Work>
    </rdf:RDF>
  </metadata>
  <g
     inkscape:label="Layer 1"
     inkscape:groupmode="layer"
     id="layer1">
    <path
       style="fill:none;fill-rule:evenodd;stroke:#000000;stroke-width:1px;stroke-linecap:butt;stroke-linejoin:miter;stroke-opacity:1"
       d="m 678,330.3622 -600,0 0,57 c 0,0 2.812203,40.72573 47.25892,48.80695 44.44671,8.08122 50.99898,24.01976 74.75128,-30.30458 22.67248,-51.85467 28.28427,-57.57869 57.5787,-10.10152 21.75445,35.2572 24.96782,66.42407 89.90358,60.60915 63.38332,-5.6759 38.30323,-89.08288 65.65991,-82.83251 51.83959,11.84415 35.76302,99.64887 78.7919,84.85283 48.43153,-16.65382 38.08169,-33.59161 41.41626,-64.64977 5.62918,-52.43019 15.15228,-30.11913 58.58884,6.24636 50.34524,42.1495 90.07092,-3.53554 88.05061,-12.62691 -2.0203,-9.09138 -2,-57 -2,-57 z"
       id="path7619"
       inkscape:connector-curvature="0"
       sodipodi:nodetypes="cccsssssssssc" />
    <path
       style="fill:none;fill-rule:evenodd;stroke:#000000;stroke-width:1px;stroke-linecap:butt;stroke-linejoin:miter;stroke-opacity:1"
       d="m 78,387.3622 c 2.020306,39.39595 0.791899,49.8171 0.791899,49.8171 0,0 3.520782,91.64851 33.335041,110.10663 77.03472,47.6925 70.91575,-52.57409 85.86296,-29.29442 13.74713,21.41059 31.70513,46.72165 74.75129,54.54823 0,0 40.0658,9.2919 58.58885,10e-6 56.08373,-28.1338 57.57962,16.61726 74.75128,-3.03046 38.51596,-44.06974 5.46402,-65.40157 70.71069,-32.32488 30.15117,15.28509 43.04227,24.07691 92.93403,0 50.57353,-24.40593 51.91694,-14.21597 80.81219,-11.11167 34.82149,3.74097 31.31474,-63.63962 31.31474,-63.63962 L 680,387.3622"
       id="path7623"
       inkscape:connector-curvature="0"
       sodipodi:nodetypes="ccsssssssscc" />
    <path
       style="fill:#6c5353;fill-opacity:1"
       d="m 474.9921,456.8625 c -5.47129,-2.8663 -11.06235,-12.18981 -17.08212,-28.48577 -11.93814,-32.3174 -20.34181,-44.88878 -34.77582,-52.02245 -11.70335,-5.78411 -18.54425,-4.86961 -22.26759,2.97675 -0.94177,1.98462 -2.64843,7.58713 -3.79258,12.45002 -5.90436,25.09486 -7.2522,29.68286 -10.9253,37.18936 -9.62584,19.67184 -23.41877,26.67048 -52.56219,26.67048 -22.18038,0 -35.30303,-4.13324 -45.77695,-14.41836 -6.77279,-6.6507 -9.37559,-10.51639 -20.87483,-31.00342 -8.95154,-15.94807 -20.67276,-34.02715 -25.54157,-39.39595 -5.24361,-5.78208 -8.91509,-8.08122 -12.90487,-8.08122 -8.01765,0 -13.82378,8.05253 -27.18253,37.69954 -9.68668,21.49758 -13.90078,29.22867 -19.23588,35.28967 -7.51694,8.53969 -13.59116,9.55533 -31.32098,5.237 -5.83363,-1.42085 -16.40473,-3.89685 -23.49133,-5.50222 -25.3174,-5.7353 -39.230112,-17.19728 -45.72843,-37.67333 -2.42224,-7.63243 -2.501074,-8.80255 -2.501074,-37.12311 l 0,-29.24228 299.005154,0 299.00515,0 0.0357,15.40483 c 0.0196,8.47265 0.4549,21.48374 0.96733,28.91353 1.11363,16.14687 0.55291,17.81302 -8.95799,26.61843 -18.17753,16.82919 -42.36925,18.55933 -65.40726,4.67779 -6.25348,-3.76803 -15.14764,-11.09372 -33.47142,-27.56879 -17.98452,-16.17003 -23.02897,-19.18968 -28.1553,-16.85397 -5.54073,2.52452 -8.9781,17.38078 -10.43338,45.09291 -0.71044,13.52866 -1.36621,18.4295 -3.07832,23.00552 -2.93639,7.84821 -9.87069,14.54531 -20.50572,19.80431 -16.5785,8.19804 -26.03162,10.0122 -33.03985,6.34073 l -1e-5,0 z"
       id="path7625"
       inkscape:connector-curvature="0" />
    <path
       style="fill:#ffffff;fill-opacity:1"
       d="m 292.17024,574.81918 c -43.22151,-5.36807 -67.62234,-19.10181 -88.12592,-49.60072 -7.11411,-10.58219 -9.35299,-12.75842 -11.68577,-11.35877 -0.93975,0.56384 -4.89062,7.39553 -8.77971,15.18153 -10.29929,20.61933 -15.49096,26.09645 -27.70157,29.22467 -9.9409,2.54673 -20.04977,0.27146 -36.46755,-8.20798 C 105.62055,542.93608 98.986466,533.93377 92.288261,513.25467 84.311263,488.62761 80.977752,465.07774 80.348742,428.90693 l -0.491863,-28.28427 3.300568,6.56599 c 6.908048,13.74254 21.764633,25.20623 37.286863,28.77142 3.6113,0.82945 14.31976,3.33201 23.79658,5.56124 19.07874,4.48788 25.23216,4.90991 31.31356,2.14766 8.42106,-3.82496 12.05142,-9.75154 33.59374,-54.842 10.75623,-22.51395 16.30323,-27.38118 25.04682,-21.97734 6.08729,3.76216 19.066,22.57103 32.71443,47.41009 11.96625,21.77763 19.0691,30.3108 30.08354,36.14147 10.01495,5.30158 15.47242,6.45606 33.05798,6.99312 25.08981,0.76623 38.20669,-3.02946 48.64335,-14.07617 9.19566,-9.73314 13.06648,-18.86621 18.46584,-43.56946 5.83677,-26.70456 8.85849,-29.33998 24.94521,-21.75613 8.06601,3.80261 16.77138,13.06407 22.33933,23.76637 2.31143,4.44287 6.88371,15.09612 10.16062,23.67389 9.02126,23.61445 11.99473,28.76462 18.97607,32.86727 5.54033,3.25583 12.29741,3.19093 21.82186,-0.20959 20.44399,-7.29915 32.24894,-16.78088 35.55289,-28.55609 1.04702,-3.73154 2.11879,-13.09908 2.70127,-23.60973 1.05695,-19.07213 3.85602,-35.11422 6.82367,-39.10813 4.35224,-5.85729 8.65094,-3.61697 29.9862,15.62768 20.04567,18.08143 29.08765,25.16337 37.28969,29.20638 23.29561,11.48307 46.90709,8.01984 64.36818,-9.44126 l 6.72784,-6.72783 0.5925,13.68225 c 1.47304,34.01657 1.75622,65.55443 0.66705,74.29141 -2.47891,19.8851 -7.78068,32.55838 -16.04194,38.34646 -3.94417,2.76341 -5.10361,3.05931 -11.61675,2.96478 -3.97941,-0.0578 -12.46282,-1.13687 -18.85204,-2.398 -19.92569,-3.93306 -29.00499,-2.03258 -62.62945,13.10962 -28.78013,12.96063 -34.00448,14.49961 -49.49748,14.58093 -15.66812,0.0822 -16.47092,-0.17369 -45.86465,-14.62174 -39.94066,-19.63223 -42.51539,-19.75738 -49.17831,-2.39026 -7.1954,18.75507 -20.81135,38.67548 -27.59999,40.37932 -1.57177,0.39448 -5.55968,-1.14099 -12.85429,-4.94933 -8.32837,-4.34803 -11.95956,-5.66635 -17.08868,-6.20412 -8.04847,-0.84386 -19.12771,1.29389 -29.48548,5.68927 -14.65673,6.21966 -17.93344,7.05978 -29.00192,7.43593 -5.86034,0.19916 -14.06443,-0.0613 -18.23131,-0.57885 z"
       id="path7627"
       inkscape:connector-curvature="0" />
    <path
       style="fill:#ffffff;fill-opacity:1"
       d="m 474.69047,456.07437 c -4.28417,-2.32239 -10.10387,-12.18099 -15.93898,-27.00069 -7.48607,-19.01273 -10.1417,-24.91548 -11.20941,-24.91548 -0.51575,0 -0.65679,-0.45457 -0.31342,-1.01016 0.34337,-0.55558 0.0672,-1.01015 -0.61382,-1.01015 -0.68097,0 -0.95321,-0.28492 -0.60498,-0.63315 0.89683,-0.89683 -1.40858,-5.02963 -6.82547,-12.23568 -4.85578,-6.45962 -15.97155,-14.90269 -18.39557,-13.9725 -0.73665,0.28268 -1.33936,0.11899 -1.33936,-0.36374 0,-0.48273 -2.24428,-1.41609 -4.98731,-2.07413 -4.00282,-0.96026 -5.54075,-0.9303 -7.79097,0.15178 -3.21337,1.54524 -7.72373,7.6984 -7.00878,9.56155 0.26437,0.68893 0.1148,1.39561 -0.33239,1.5704 -0.44718,0.17479 -2.89351,8.58375 -5.43628,18.68658 -5.32037,21.13861 -9.8313,31.47778 -16.89978,38.73472 -9.52025,9.77408 -20.45909,13.06702 -43.40745,13.06702 -34.01031,0 -44.12939,-6.35339 -63.53912,-39.89388 -18.83579,-32.5487 -29.17065,-47.2295 -35.58229,-50.54509 -3.5554,-1.83856 -8.287,-1.85227 -11.80277,-0.0342 -4.52924,2.34216 -8.60541,9.169 -22.75966,38.1183 -18.57297,37.98676 -21.46882,41.08672 -37.3261,39.95689 -12.69752,-0.90469 -46.12641,-9.61038 -55.3164,-14.40572 -12.705472,-6.62972 -20.058453,-15.51716 -25.41374,-30.71721 -1.715924,-4.87035 -2.038609,-9.39362 -2.541847,-35.63058 l -0.576413,-30.05204 299.1551,0 299.1551,0 0,21.71828 c 0,11.94506 0.34346,21.71828 0.76322,21.71828 1.139,0 -0.19601,16.33417 -1.53571,18.78992 -0.63682,1.16731 -4.0084,4.76149 -7.49239,7.98705 -11.54544,10.68904 -26.93733,15.83213 -40.76868,13.62256 -17.33225,-2.76884 -24.62892,-7.20035 -52.99184,-32.18367 -9.72272,-8.5642 -19.69858,-16.871 -22.16859,-18.45955 -5.48038,-3.52465 -10.01614,-3.74033 -12.94338,-0.61545 -2.56507,2.73825 -4.56096,7.67019 -3.85184,9.51811 0.28303,0.73757 0.13666,1.34103 -0.32526,1.34103 -1.25446,0 -2.99709,12.43045 -4.60247,32.82996 -0.78701,10.00051 -1.98304,19.77374 -2.65784,21.71828 -2.85722,8.23346 -9.83542,14.99131 -21.63592,20.95272 -14.30751,7.22792 -25.62662,9.23892 -32.13719,5.70964 z"
       id="path7629"
       inkscape:connector-curvature="0" />
    <path
       style="fill:#0303c6;fill-opacity:0.82386363"
       d="m 292.17024,574.81918 c -43.44416,-5.39572 -67.17499,-18.82324 -88.63085,-50.14963 -7.35551,-10.73933 -8.8807,-12.20814 -11.17438,-10.76132 -0.90811,0.57282 -4.84748,7.38469 -8.75416,15.13748 -3.90669,7.7528 -8.43162,15.8131 -10.05539,17.91177 -4.26683,5.51472 -10.72059,9.57344 -18.13018,11.40194 -5.86626,1.44764 -7.19176,1.4511 -14.1267,0.0369 -13.10215,-2.67192 -29.31085,-10.90893 -35.35003,-17.96435 -7.865935,-9.18957 -14.571173,-25.95154 -19.230124,-48.07206 -4.612171,-21.8984 -5.890963,-34.70909 -6.384439,-63.95802 l -0.468678,-27.7792 3.28675,6.56599 c 4.426894,8.84368 15.345059,19.61095 24.376071,24.03918 4.00201,1.96234 12.25536,4.55954 20.13559,6.33636 7.34458,1.65604 17.0207,3.9787 21.50247,5.16145 4.78326,1.26231 11.51318,2.19037 16.2951,2.24709 7.29194,0.0865 8.58999,-0.19631 12.37549,-2.69636 7.4962,-4.95068 10.96798,-10.85857 30.80031,-52.41268 11.26376,-23.60063 16.69524,-28.4915 25.55792,-23.01406 6.25623,3.86656 17.57295,20.40502 34.80114,50.859 14.64125,25.8811 25.59034,35.088 45.94874,38.63754 12.38513,2.15938 35.7219,1.39926 44.61687,-1.45324 19.06861,-6.11507 29.23558,-19.65491 35.67534,-47.51055 5.13126,-22.19565 6.87087,-27.45435 10.17512,-30.7586 2.6068,-2.6068 3.45921,-2.8979 6.74287,-2.30266 6.36434,1.15368 14.05597,5.22306 19.50794,10.32098 9.30444,8.70023 13.82615,16.75946 23.25575,41.44973 7.13063,18.67068 8.99614,22.41861 13.81937,27.76378 6.78471,7.51892 13.40802,8.59401 26.29464,4.26812 15.75193,-5.28774 29.31832,-14.42827 33.45804,-22.54278 3.17904,-6.23143 4.07402,-11.3883 5.12584,-29.53482 1.11701,-19.27109 3.91473,-35.25989 6.8644,-39.22959 4.43336,-5.96646 8.28616,-3.8632 32.51158,17.74818 9.16714,8.17795 19.39493,16.89057 22.72843,19.36137 26.68918,19.78208 55.06293,19.10962 76.41357,-1.81101 l 6.72423,-6.5888 0.58867,12.64972 c 1.44335,31.01569 1.75718,66.52359 0.66534,75.27917 -2.47988,19.88653 -7.78123,32.55851 -16.0423,38.34646 -3.93451,2.75664 -5.11956,3.06106 -11.61675,2.98414 -3.97941,-0.0471 -11.09912,-0.93865 -15.82158,-1.98121 -5.4171,-1.19591 -12.31475,-1.87291 -18.68782,-1.8342 -12.34247,0.0749 -20.43192,2.5641 -45.71116,14.06535 -9.30506,4.23352 -21.69127,9.34442 -27.5249,11.35757 -9.9457,3.4322 -11.39339,3.6625 -23.23351,3.69611 -15.69776,0.0446 -17.03793,-0.37709 -45.45686,-14.30208 -34.04076,-16.67962 -39.15218,-18.12921 -44.29397,-12.56172 -1.47297,1.59492 -3.76067,5.79968 -5.08377,9.34391 -6.16484,16.51383 -19.41669,36.90105 -26.03852,40.05877 -3.41349,1.62778 -3.44722,1.61889 -13.75283,-3.62937 -5.68201,-2.89363 -12.76586,-5.75826 -15.74187,-6.36582 -7.43424,-1.51773 -18.02776,0.17979 -29.75222,4.76751 -18.70137,7.31777 -19.87482,7.62096 -30.95328,7.99744 -5.86034,0.19916 -14.06443,-0.0613 -18.23131,-0.57885 z"
       id="path7631"
       inkscape:connector-curvature="0" />
  </g>
</svg>
