<?xml version="1.0" encoding="UTF-8" standalone="no"?>
<!-- Created with Inkscape (http://www.inkscape.org/) -->

<svg
   xmlns:dc="http://purl.org/dc/elements/1.1/"
   xmlns:cc="http://creativecommons.org/ns#"
   xmlns:rdf="http://www.w3.org/1999/02/22-rdf-syntax-ns#"
   xmlns:svg="http://www.w3.org/2000/svg"
   xmlns="http://www.w3.org/2000/svg"
   xmlns:xlink="http://www.w3.org/1999/xlink"
   xmlns:sodipodi="http://sodipodi.sourceforge.net/DTD/sodipodi-0.dtd"
   xmlns:inkscape="http://www.inkscape.org/namespaces/inkscape"
   width="210mm"
   height="297mm"
   viewBox="0 0 744.09448819 1052.3622047"
   id="svg2"
   version="1.1"
   inkscape:version="0.91 r13725"
   sodipodi:docname="drawing.svg">
  <defs
     id="defs4" />
  <sodipodi:namedview
     id="base"
     pagecolor="#ffffff"
     bordercolor="#666666"
     borderopacity="0.62352941"
     inkscape:pageopacity="0.0"
     inkscape:pageshadow="2"
     inkscape:zoom="0.35"
     inkscape:cx="375"
     inkscape:cy="520"
     inkscape:document-units="px"
     inkscape:current-layer="layer1"
     showgrid="false"
     inkscape:window-width="1680"
     inkscape:window-height="935"
     inkscape:window-x="6"
     inkscape:window-y="17"
     inkscape:window-maximized="0" />
  <metadata
     id="metadata7">
    <rdf:RDF>
      <cc:Work
         rdf:about="">
        <dc:format>image/svg+xml</dc:format>
        <dc:type
           rdf:resource="http://purl.org/dc/dcmitype/StillImage" />
        <dc:title></dc:title>
      </cc:Work>
    </rdf:RDF>
  </metadata>
  <g
     inkscape:label="Layer 1"
     inkscape:groupmode="layer"
     id="layer1">
    <rect
       style="fill:#0000ff;fill-rule:evenodd;stroke:#000000;stroke-width:1px;stroke-linecap:butt;stroke-linejoin:miter;stroke-opacity:1"
       id="rect3336"
       width="345.71429"
       height="174.28572"
       x="174.28572"
       y="206.64792" />
    <path
       sodipodi:type="spiral"
       style="fill:none;fill-rule:evenodd;stroke:#000000;stroke-width:1px;stroke-linecap:butt;stroke-linejoin:miter;stroke-opacity:1"
       id="path3338"
       sodipodi:cx="280"
       sodipodi:cy="603.79077"
       sodipodi:expansion="1"
       sodipodi:revolution="3"
       sodipodi:radius="159.92345"
       sodipodi:argument="-18.522156"
       sodipodi:t0="0"
       d="m 280,603.79077 c 7.59239,2.57855 0.26999,11.50655 -4.28571,12.61905 -12.34567,3.0148 -21.16076,-10.35659 -20.95238,-21.19048 0.37273,-19.37927 20.21722,-31.41052 38.09523,-29.28571 26.2367,3.11824 41.86902,30.17728 37.61905,55 -5.66455,33.08477 -40.16812,52.41075 -71.90476,45.95238 -39.93732,-8.1272 -62.99438,-50.17254 -54.28571,-88.80952 10.54735,-46.79456 60.18438,-73.60205 105.71427,-62.61905 53.65542,12.94308 84.22479,70.20081 70.95239,122.61904 -15.32351,60.51891 -80.22032,94.85757 -139.5238,79.28572 -67.38439,-17.69373 -105.49739,-90.24199 -87.61905,-156.42856 20.05679,-74.25134 100.26524,-116.14234 173.33332,-95.95239 81.11941,22.41467 126.79111,110.28971 104.28572,190.23808" />
    <use
       id="use3340"
       xlink:href="#path3338"
       x="0"
       y="0"
       width="100%"
       height="100%"
       transform="translate(382.17282,138.01457)" />
    <use
       id="use3342"
       xlink:href="#path3338"
       x="0"
       y="0"
       width="100%"
       height="100%"
       transform="translate(287.87528,215.64791)" />
    <use
       id="use3344"
       xlink:href="#path3338"
       x="0"
       y="0"
       width="100%"
       height="100%"
       transform="translate(355.33878,170.75343)" />
    <use
       id="use3346"
       xlink:href="#path3338"
       x="0"
       y="0"
       width="100%"
       height="100%"
       transform="translate(265.79245,243.54947)" />
    <use
       id="use3348"
       xlink:href="#path3338"
       x="0"
       y="0"
       width="100%"
       height="100%"
       transform="translate(241.95972,102.11133)" />
    <use
       id="use3350"
       xlink:href="#path3338"
       x="0"
       y="0"
       width="100%"
       height="100%"
       transform="translate(272.15466,100.05342)" />
    <use
       id="use3352"
       xlink:href="#path3338"
       x="0"
       y="0"
       width="100%"
       height="100%"
       transform="translate(250.29935,147.71201)" />
    <use
       id="use3354"
       xlink:href="#path3338"
       x="0"
       y="0"
       width="100%"
       height="100%"
       transform="translate(170.73972,208.11741)" />
    <use
       id="use3356"
       xlink:href="#path3338"
       x="0"
       y="0"
       width="100%"
       height="100%"
       transform="translate(260.37983,114.68506)" />
    <use
       id="use3358"
       xlink:href="#path3338"
       x="0"
       y="0"
       width="100%"
       height="100%"
       transform="translate(222.7358,157.03722)" />
    <use
       id="use3360"
       xlink:href="#path3338"
       x="0"
       y="0"
       width="100%"
       height="100%"
       transform="translate(210.48458,101.30025)" />
    <use
       id="use3362"
       xlink:href="#path3338"
       x="0"
       y="0"
       width="100%"
       height="100%"
       transform="translate(-33.698953,164.17269)" />
    <use
       id="use3364"
       xlink:href="#path3338"
       x="0"
       y="0"
       width="100%"
       height="100%"
       transform="translate(26.040127,239.42415)" />
    <use
       id="use3366"
       xlink:href="#path3338"
       x="0"
       y="0"
       width="100%"
       height="100%"
       transform="translate(90.04254,282.726)" />
    <use
       id="use3368"
       xlink:href="#path3338"
       x="0"
       y="0"
       width="100%"
       height="100%"
       transform="translate(21.760379,159.82498)" />
    <use
       id="use3370"
       xlink:href="#path3338"
       x="0"
       y="0"
       width="100%"
       height="100%"
       transform="translate(-7.4711533,244.74103)" />
    <use
       id="use3372"
       xlink:href="#path3338"
       x="0"
       y="0"
       width="100%"
       height="100%"
       transform="translate(-20.595846,191.89462)" />
    <use
       id="use3374"
       xlink:href="#path3338"
       x="0"
       y="0"
       width="100%"
       height="100%"
       transform="translate(-193.59786,243.90868)" />
    <use
       id="use3376"
       xlink:href="#path3338"
       x="0"
       y="0"
       width="100%"
       height="100%"
       transform="translate(-152.83692,342.91321)" />
    <use
       id="use3378"
       xlink:href="#path3338"
       x="0"
       y="0"
       width="100%"
       height="100%"
       transform="translate(-131.75553,277.22365)" />
    <use
       id="use3380"
       xlink:href="#path3338"
       x="0"
       y="0"
       width="100%"
       height="100%"
       transform="translate(-55.479244,362.58399)" />
    <use
       id="use3382"
       xlink:href="#path3338"
       x="0"
       y="0"
       width="100%"
       height="100%"
       transform="translate(-152.15526,208.55709)" />
    <use
       id="use3384"
       xlink:href="#path3338"
       x="0"
       y="0"
       width="100%"
       height="100%"
       transform="translate(-154.64824,305.79796)" />
    <ellipse
       style="fill:#ff0000;fill-rule:evenodd;stroke:#000000;stroke-width:1px;stroke-linecap:butt;stroke-linejoin:miter;stroke-opacity:1"
       id="path3386"
       cx="220"
       cy="583.79077"
       rx="131.42857"
       ry="128.57143" />
    <path
       sodipodi:type="star"
       style="fill:#ffff00;fill-rule:evenodd;stroke:#000000;stroke-width:1px;stroke-linecap:butt;stroke-linejoin:miter;stroke-opacity:1"
       id="path3388"
       sodipodi:sides="5"
       sodipodi:cx="594.28571"
       sodipodi:cy="512.36218"
       sodipodi:r1="356.91422"
       sodipodi:r2="178.45711"
       sodipodi:arg1="2.8071845"
       sodipodi:arg2="3.4355031"
       inkscape:flatsided="false"
       inkscape:rounded="0"
       inkscape:randomized="0"
       d="M 257.14285,629.50506 423.48113,460.66366 378.69334,227.91941 590.67241,333.94166 798.18515,219.42401 762.85714,453.79076 935.89486,615.7592 702.08188,654.58357 601.51233,869.20323 492.33597,658.83126 Z"
       inkscape:transform-center-x="-2.2331438"
       inkscape:transform-center-y="31.951442" />
  </g>
</svg>
